# xmcd
#
# Track frame offsets:
#	150
#	13845
#	28912
#
# Disc length: 565 seconds
#
# Revision: 0
# Processed by: cddbd v1.5.2PL0 Copyright (c) Steve Scherf et al.
# Submitted via: audiograbber 1.83.01
#
DISCID=1f023303
DTITLE=Marco Bjurström - Marco Goes Hylleba [CDS)
DYEAR=1999
DGENRE=Dance
TTITLE0=Marco Goes Hylleba
TTITLE1=Marco Goes Hylleba (Remix)
TTITLE2=Marco Goes Hylleba (Karaokemix)
EXTD=TR.
EXTT0=
EXTT1=
EXTT2=
PLAYORDER=
